{"title":"Top.Gear.The.Perfect.Road.Trip.2.2014.WEBRiP.XViD.AC3.5.1.ReLeNT","uid":11390419,"size":1336992064,"categoryP":"video","categoryS":"movies","magnet":"?xt=urn:btih:0f22e0be6aeb286aef6ed32e0ca87ed64b7c81f7&amp;dn=Top.Gear.The.Perfect.Road.Trip.2.2014.WEBRiP.XViD.AC3.5.1.ReLeNT&amp;tr=udp%3A%2F%2Ftracker.openbittorrent.com%3A80&amp;tr=udp%3A%2F%2Fopen.demonii.com%3A1337&amp;tr=udp%3A%2F%2Ftracker.coppersurfer.tk%3A6969&amp;tr=udp%3A%2F%2Fexodus.desync.com%3A6969","seeders":1,"leechers":0,"uploader":"TvTeam","files":4,"time":1415319157,"description":" &lt;a href=&quot;http://www.torrenting.com&quot; rel=&quot;nofollow&quot; target=&quot;_NEW&quot;&gt;http://www.torrenting.com&lt;/a&gt;\n\nSign up is OPEN - for time being. Come and have fun.\n\n\n------------------------------------------------------------------------P0STER\n[img]http://lookpic.com/O/i2/802/QYHpzsKc.jpeg[/img]\n\nGeneral\nComplete name                            : Top.Gear.The.Perfect.Road.Trip.2.2014.WEBRiP.XViD.AC3.5.1.ReLeNTLesS.avi\nFormat                                   : AVI\nFormat/Info                              : Audio Video Interleave\nFile size                                : 1.24 GiB\nDuration                                 : 1h 34mn\nOverall bit rate                         : 1 871 Kbps\n\nVideo\nID                                       : 0\nFormat                                   : MPEG-4 Visual\nFormat profile                           : Advanced Simple@L5\nFormat settings, BVOP                    : 1\nFormat settings, QPel                    : No\nFormat settings, GMC                     : No warppoints\nFormat settings, Matrix                  : Default (H.263)\nMuxing mode                              : Packed bitstream\nCodec ID                                 : XVID\nCodec ID/Hint                            : XviD\nDuration                                 : 1h 34mn\nBit rate                                 : 1 480 Kbps\nWidth                                    : 720 pixels\nHeight                                   : 400 pixels\nDisplay aspect ratio                     : 16:9\nFrame rate                               : 25.000 fps\nColor space                              : YUV\nChroma subsampling                       : 4:2:0\nBit depth                                : 8 bits\nScan type                                : Progressive\nCompression mode                         : Lossy\nBits/(Pixel*Frame)                       : 0.205\nStream size                              : 1 000 MiB (79%)\nWriting library                          : XviD 1.2.1 (UTC 2008-12-04)\n\nAudio\nID                                       : 1\nFormat                                   : AC-3\nFormat/Info                              : Audio Coding 3\nMode extension                           : CM (complete main)\nFormat settings, Endianness              : Big\nCodec ID                                 : 2000\nDuration                                 : 1h 34mn\nBit rate mode                            : Constant\nBit rate                                 : 384 Kbps\nChannel(s)                               : 6 channels\nChannel positions                        : Front: L C R, Side: L R, LFE\nSampling rate                            : 48.0 KHz\nBit depth                                : 16 bits\nCompression mode                         : Lossy\nStream size                              : 260 MiB (21%)\nAlignment                                : Aligned on interleaves\nInterleave, duration                     : 64 ms (1.60 video frames)\nInterleave, preload duration             : 192 ms\nTitle                                    : Top.Gear.The.Perfect.Road.Trip.2.English.audio.5.1\nSource                                   :  CtrlHD 1080p Thanks \n\nPL0T\nIn 2013 Jeremy Clarkson and Richard Hammond embarked on what they hoped would be the perfect road trip. It started well and ended, quite frankly, very badly. Unbowed, the Top Gear pair are back for another crack and this time theyre hoping to avoid inconveniences like apprehension by the French police. Welcome, then, to The Perfect Road Trip 2.\n\nSCREENS\n[IMG]http://lookpic.com/O/i2/1450/5bfoXK1m.png[/IMG]\n[IMG]http://lookpic.com/O/i2/1476/aG6IaUew.png[/IMG]\n[IMG]http://lookpic.com/O/i2/299/MVhbe0QD.png[/IMG]\n[IMG]http://lookpic.com/O/i2/660/PE03vTY7.png[/IMG]\n[IMG]http://lookpic.com/O/i2/262/vfTvdkmM.png[/IMG]\n[IMG]http://lookpic.com/O/i2/1401/v2o6n8VL.png[/IMG]\n\nTRAiLER\n\nGREETZ\n\nM0RPH, M00SE, MiLLENiUM, Anonymous, TuX, \n\nACAB, KingStoner, FooKas, 4PlayHD, \n\nGodFather, Cld.... \n\nKeep up the good work guyz","torrent":{"xt":"urn:btih:0f22e0be6aeb286aef6ed32e0ca87ed64b7c81f7","amp;dn":"Top.Gear.The.Perfect.Road.Trip.2.2014.WEBRiP.XViD.AC3.5.1.ReLeNT","amp;tr":["udp%3A%2F%2Ftracker.openbittorrent.com%3A80","udp%3A%2F%2Fopen.demonii.com%3A1337","udp%3A%2F%2Ftracker.coppersurfer.tk%3A6969","udp%3A%2F%2Fexodus.desync.com%3A6969"],"infoHash":"0f22e0be6aeb286aef6ed32e0ca87ed64b7c81f7","infoHashBuffer":{"type":"Buffer","data":[15,34,224,190,106,235,40,106,239,110,211,46,12,168,126,214,75,124,129,247]},"announce":[],"urlList":[]}}